<mxfile host="app.diagrams.net" agent="Mozilla/5.0 (Windows NT 10.0; Win64; x64) AppleWebKit/537.36 (KHTML, like Gecko) Chrome/137.0.0.0 Safari/537.36" version="27.1.1">
  <diagram name="Page-1" id="bXTMawsEI31QVvh0f1B6">
    <mxGraphModel dx="768" dy="566" grid="1" gridSize="10" guides="1" tooltips="1" connect="1" arrows="1" fold="1" page="1" pageScale="1" pageWidth="827" pageHeight="1169" math="0" shadow="0">
      <root>
        <mxCell id="0" />
        <mxCell id="1" parent="0" />
        <mxCell id="PLeA3UiImlYLX6Z-o4D_-3" style="edgeStyle=orthogonalEdgeStyle;rounded=0;orthogonalLoop=1;jettySize=auto;html=1;exitX=1;exitY=0.5;exitDx=0;exitDy=0;entryX=0;entryY=0.25;entryDx=0;entryDy=0;" edge="1" parent="1" source="PLeA3UiImlYLX6Z-o4D_-1" target="PLeA3UiImlYLX6Z-o4D_-2">
          <mxGeometry relative="1" as="geometry" />
        </mxCell>
        <mxCell id="PLeA3UiImlYLX6Z-o4D_-1" value="step" style="rounded=1;whiteSpace=wrap;html=1;" vertex="1" parent="1">
          <mxGeometry x="240" y="170" width="120" height="60" as="geometry" />
        </mxCell>
        <mxCell id="PLeA3UiImlYLX6Z-o4D_-5" style="edgeStyle=orthogonalEdgeStyle;rounded=0;orthogonalLoop=1;jettySize=auto;html=1;exitX=0;exitY=0.75;exitDx=0;exitDy=0;entryX=1;entryY=0.5;entryDx=0;entryDy=0;" edge="1" parent="1" source="PLeA3UiImlYLX6Z-o4D_-2" target="PLeA3UiImlYLX6Z-o4D_-4">
          <mxGeometry relative="1" as="geometry" />
        </mxCell>
        <mxCell id="PLeA3UiImlYLX6Z-o4D_-2" value="OCC" style="rounded=0;whiteSpace=wrap;html=1;" vertex="1" parent="1">
          <mxGeometry x="450" y="220" width="120" height="60" as="geometry" />
        </mxCell>
        <mxCell id="PLeA3UiImlYLX6Z-o4D_-8" style="edgeStyle=orthogonalEdgeStyle;rounded=0;orthogonalLoop=1;jettySize=auto;html=1;exitX=0;exitY=0.5;exitDx=0;exitDy=0;entryX=1;entryY=0.25;entryDx=0;entryDy=0;" edge="1" parent="1" source="PLeA3UiImlYLX6Z-o4D_-4" target="PLeA3UiImlYLX6Z-o4D_-7">
          <mxGeometry relative="1" as="geometry" />
        </mxCell>
        <mxCell id="PLeA3UiImlYLX6Z-o4D_-4" value="Binary" style="rounded=1;whiteSpace=wrap;html=1;" vertex="1" parent="1">
          <mxGeometry x="240" y="300" width="120" height="60" as="geometry" />
        </mxCell>
        <mxCell id="PLeA3UiImlYLX6Z-o4D_-7" value="render" style="rounded=0;whiteSpace=wrap;html=1;" vertex="1" parent="1">
          <mxGeometry x="50" y="380" width="120" height="60" as="geometry" />
        </mxCell>
        <mxCell id="PLeA3UiImlYLX6Z-o4D_-9" value="DB" style="rounded=0;whiteSpace=wrap;html=1;" vertex="1" parent="1">
          <mxGeometry x="480" y="370" width="120" height="60" as="geometry" />
        </mxCell>
      </root>
    </mxGraphModel>
  </diagram>
</mxfile>
